<svg width="68" height="11" viewBox="0 0 68 11" fill="none" xmlns="http://www.w3.org/2000/svg">
<path d="M8.85938 4.98438V8.92188C8.67708 9.09375 8.40365 9.27344 8.03906 9.46094C7.67448 9.64844 7.22396 9.80729 6.6875 9.9375C6.15625 10.0625 5.54167 10.125 4.84375 10.125C4.18229 10.125 3.58333 10.0286 3.04688 9.83594C2.51042 9.64323 2.04948 9.35677 1.66406 8.97656C1.28385 8.59635 0.992188 8.13021 0.789062 7.57812C0.585938 7.02604 0.484375 6.39062 0.484375 5.67188V5.23438C0.484375 4.51562 0.591146 3.88021 0.804688 3.32812C1.02344 2.77083 1.32552 2.30208 1.71094 1.92188C2.09635 1.54167 2.54427 1.25521 3.05469 1.0625C3.57031 0.864583 4.1276 0.765625 4.72656 0.765625C5.66927 0.765625 6.43229 0.903646 7.01562 1.17969C7.59896 1.45573 8.03646 1.83854 8.32812 2.32812C8.61979 2.81771 8.79427 3.38281 8.85156 4.02344H6.32812C6.28646 3.73177 6.20833 3.4974 6.09375 3.32031C5.98438 3.13802 5.82812 3.00521 5.625 2.92188C5.42188 2.83854 5.15625 2.79688 4.82812 2.79688C4.59375 2.79688 4.3724 2.84375 4.16406 2.9375C3.96094 3.02604 3.78125 3.16927 3.625 3.36719C3.46875 3.5599 3.34635 3.8099 3.25781 4.11719C3.16927 4.41927 3.125 4.78646 3.125 5.21875V5.67188C3.125 6.08854 3.16146 6.45052 3.23438 6.75781C3.30729 7.0651 3.41927 7.31771 3.57031 7.51562C3.72656 7.71354 3.92708 7.86198 4.17188 7.96094C4.42188 8.05469 4.71875 8.10156 5.0625 8.10156C5.34375 8.10156 5.58333 8.07552 5.78125 8.02344C5.97917 7.96615 6.11979 7.91146 6.20312 7.85938V6.74219H4.64062V4.98438H8.85938ZM18.3516 5.29688V5.60938C18.3516 6.30208 18.2448 6.92708 18.0312 7.48438C17.8177 8.04167 17.5156 8.51823 17.125 8.91406C16.7344 9.30469 16.2734 9.60417 15.7422 9.8125C15.2109 10.0208 14.6276 10.125 13.9922 10.125C13.3464 10.125 12.7552 10.0208 12.2188 9.8125C11.6875 9.60417 11.2266 9.30469 10.8359 8.91406C10.4453 8.51823 10.1432 8.04167 9.92969 7.48438C9.71615 6.92708 9.60938 6.30208 9.60938 5.60938V5.29688C9.60938 4.59896 9.71354 3.97396 9.92188 3.42188C10.1354 2.86458 10.4349 2.38802 10.8203 1.99219C11.2109 1.59635 11.6719 1.29427 12.2031 1.08594C12.7396 0.877604 13.3307 0.773438 13.9766 0.773438C14.612 0.773438 15.1953 0.877604 15.7266 1.08594C16.2578 1.29427 16.7188 1.59635 17.1094 1.99219C17.5052 2.38802 17.8099 2.86458 18.0234 3.42188C18.2422 3.97396 18.3516 4.59896 18.3516 5.29688ZM15.6953 5.60938V5.28906C15.6953 4.88802 15.6562 4.53385 15.5781 4.22656C15.5 3.91406 15.3854 3.65104 15.2344 3.4375C15.0885 3.22396 14.9089 3.0625 14.6953 2.95312C14.487 2.83854 14.2474 2.78125 13.9766 2.78125C13.6901 2.78125 13.4375 2.83854 13.2188 2.95312C13.0052 3.0625 12.8281 3.22396 12.6875 3.4375C12.5469 3.65104 12.4401 3.91406 12.3672 4.22656C12.2995 4.53385 12.2656 4.88802 12.2656 5.28906V5.60938C12.2656 6 12.2995 6.35156 12.3672 6.66406C12.4401 6.97135 12.5495 7.23438 12.6953 7.45312C12.8411 7.67188 13.0208 7.83854 13.2344 7.95312C13.4531 8.06771 13.7057 8.125 13.9922 8.125C14.2578 8.125 14.4948 8.06771 14.7031 7.95312C14.9167 7.83854 15.0964 7.67188 15.2422 7.45312C15.388 7.23438 15.5 6.97135 15.5781 6.66406C15.6562 6.35156 15.6953 6 15.6953 5.60938ZM27.3047 7.48438L29.2266 0.898438H31.9844L28.7812 10H26.8906L27.3047 7.48438ZM25.375 0.898438L27.2578 7.45312L27.7266 10H25.8047L22.6172 0.898438H25.375ZM39.4062 7.97656V10H34.1562V7.97656H39.4062ZM35.1641 0.898438V10H32.5234V0.898438H35.1641ZM38.7422 4.28125V6.3125H34.1562V4.28125H38.7422ZM39.4453 0.898438V2.92969H34.1562V0.898438H39.4453ZM48.4219 4.98438V8.92188C48.2396 9.09375 47.9661 9.27344 47.6016 9.46094C47.237 9.64844 46.7865 9.80729 46.25 9.9375C45.7188 10.0625 45.1042 10.125 44.4062 10.125C43.7448 10.125 43.1458 10.0286 42.6094 9.83594C42.0729 9.64323 41.612 9.35677 41.2266 8.97656C40.8464 8.59635 40.5547 8.13021 40.3516 7.57812C40.1484 7.02604 40.0469 6.39062 40.0469 5.67188V5.23438C40.0469 4.51562 40.1536 3.88021 40.3672 3.32812C40.5859 2.77083 40.888 2.30208 41.2734 1.92188C41.6589 1.54167 42.1068 1.25521 42.6172 1.0625C43.1328 0.864583 43.6901 0.765625 44.2891 0.765625C45.2318 0.765625 45.9948 0.903646 46.5781 1.17969C47.1615 1.45573 47.599 1.83854 47.8906 2.32812C48.1823 2.81771 48.3568 3.38281 48.4141 4.02344H45.8906C45.849 3.73177 45.7708 3.4974 45.6562 3.32031C45.5469 3.13802 45.3906 3.00521 45.1875 2.92188C44.9844 2.83854 44.7188 2.79688 44.3906 2.79688C44.1562 2.79688 43.9349 2.84375 43.7266 2.9375C43.5234 3.02604 43.3438 3.16927 43.1875 3.36719C43.0312 3.5599 42.9089 3.8099 42.8203 4.11719C42.7318 4.41927 42.6875 4.78646 42.6875 5.21875V5.67188C42.6875 6.08854 42.724 6.45052 42.7969 6.75781C42.8698 7.0651 42.9818 7.31771 43.1328 7.51562C43.2891 7.71354 43.4896 7.86198 43.7344 7.96094C43.9844 8.05469 44.2812 8.10156 44.625 8.10156C44.9062 8.10156 45.1458 8.07552 45.3438 8.02344C45.5417 7.96615 45.6823 7.91146 45.7656 7.85938V6.74219H44.2031V4.98438H48.4219ZM53.4531 3.78125L51.3516 10H48.6953L52.2266 0.898438H54.0547L53.4531 3.78125ZM55.7031 10L53.5234 3.79688L52.9062 0.898438H54.7656L58.3516 10H55.7031ZM55.7344 6.60938V8.40625H50.8828V6.60938H55.7344ZM67.25 0.898438V10H64.6094L61.5391 4.70312V10H58.8984V0.898438H61.5391L64.6094 6.19531V0.898438H67.25Z" fill="white"/>
</svg>
