<svg width="162" height="162" viewBox="0 0 162 162" fill="none" xmlns="http://www.w3.org/2000/svg">
<path d="M95.9631 85.7391C98.2081 91.0763 100.286 95.9814 102.352 100.897C102.782 101.945 103.093 103.045 103.534 104.083C104.216 105.671 105.502 106.158 107.108 105.82C108.876 105.452 109.407 104.059 109.316 102.509C109.232 101.25 108.88 99.9555 108.431 98.7569C106.621 93.9083 104.747 89.0806 102.654 83.6375C104.59 83.6581 106.324 83.4076 107.945 83.7152C117.186 85.5451 125.469 89.5051 132.567 95.6897C134.602 97.4645 136.028 99.9427 137.715 102.101C138.988 103.728 140.436 105.185 142.623 103.853C144.701 102.584 144.357 100.558 143.56 98.6568C141.693 94.1626 138.318 90.8677 134.541 88.0096C127.2 82.4677 119.036 78.5197 109.975 76.8531C106.358 76.1801 102.58 76.4519 98.3225 76.2561C96.8911 74.3156 95.2277 71.9424 93.4666 69.6435C82.3279 55.0695 68.6117 43.1678 53.7407 32.6521C43.6951 25.5434 33.1798 19.1074 22.872 12.3831C21.8251 11.7051 20.7894 10.995 19.9998 9.38401C22.6418 9.75625 25.283 10.193 27.9368 10.4686C29.3656 10.6236 30.8907 10.8334 32.2601 10.5145C33.9313 10.1343 35.0845 8.89889 34.9221 6.9719C34.7796 5.19569 33.5815 4.58064 31.96 4.33755C24.0989 3.19998 16.2385 1.9979 8.38824 0.849696C7.27137 0.687253 6.12236 0.513714 4.99256 0.555492C1.82914 0.672469 0.303166 2.57077 0.882702 5.72835C1.08614 6.8276 1.53728 7.89722 1.96714 8.94509C4.01206 13.8822 6.07848 18.8195 8.16665 23.7355C8.48152 24.4702 8.81767 25.2267 9.26228 25.8983C10.2894 27.4258 11.768 27.9577 13.4845 27.3629C15.3305 26.7264 15.9175 25.13 15.473 23.4367C14.7904 20.8696 13.7951 18.3744 13.2981 15.5404C42.4913 32.5541 70.7597 50.5583 91.3162 78.6878C90.3054 79.6773 89.608 80.5303 88.7514 81.1773C79.0479 88.4419 75.3062 98.448 75.9564 110.136C76.8624 126.107 84.3309 138.889 96.0405 149.328C101.038 153.78 106.723 157.196 113.144 159.297C130.251 164.878 147.208 158.175 155.862 142.38C167.927 120.373 160.678 88.9649 140.489 75.8866C138.876 74.8476 137.089 74.0005 135.289 73.336C133.478 72.6607 131.637 72.8455 130.808 74.934C130.079 76.7763 131.195 78.025 132.68 78.9335C134.742 80.2139 137.034 81.1847 138.889 82.7102C154.745 95.6887 159.41 122.305 149.015 139.931C142.203 151.474 129.705 156.537 116.868 152.969C98.4868 147.869 82.6856 126.706 83.0069 107.597C83.0973 102.123 84.4424 96.9963 87.5563 92.4366C89.4794 89.5961 91.7644 87.125 95.9631 85.7391Z" fill="black"/>
</svg>
