<svg width="310" height="166" viewBox="0 0 310 166" fill="none" xmlns="http://www.w3.org/2000/svg">
<path d="M278.815 141.771C281.919 136.62 285.09 131.503 288.093 126.285C292.825 118.081 297.455 109.81 302.136 101.572C302.404 101.102 302.656 100.633 302.925 100.18C303.998 98.3677 305.374 97.0087 307.706 97.7134C309.619 98.2838 310.558 100.448 309.652 103.149C308.696 106.018 307.454 108.837 305.961 111.454C296.482 128.064 286.902 144.623 277.322 161.166C274.403 166.216 270.477 166.4 267.709 161.233C263.665 153.683 259.974 145.932 256.367 138.147C253.884 132.795 251.787 127.275 249.539 121.823C249.136 120.833 248.616 119.86 248.348 118.836C247.693 116.252 248.633 114.256 250.696 113.551C252.978 112.763 254.572 114.055 255.746 116.89C259.471 125.967 263.363 134.993 267.239 144.019C267.491 144.623 268.044 145.093 268.85 146.116C270.158 143.566 269.974 141.251 269.756 139.137C268.749 128.634 267.944 118.098 266.333 107.696C264.253 94.2404 260.981 81.0031 256.065 68.2858C246.401 43.321 229.809 24.5806 205.079 13.7927C188.117 6.39388 170.718 6.09189 153.287 12.5512C151.945 13.0545 150.636 13.6249 149.344 14.2457C148.891 14.4638 148.555 14.9 147.599 15.7053C149.025 16.8965 150.317 18.0038 151.626 19.0776C165.048 30.1004 173.403 44.2102 176.054 61.3064C179.141 81.2883 172.95 98.1664 156.776 110.649C145.15 119.641 130.352 120.245 118.541 112.964C113.222 109.676 109.347 104.995 106.411 99.5924C96.5958 81.4896 97.5857 63.1519 105.89 44.898C110.571 34.6135 117.853 26.2919 126.544 19.1615C127.5 18.373 128.439 17.5341 129.329 16.6617C129.547 16.4435 129.563 16.0073 129.815 15.2188C127.651 14.5141 125.503 13.7088 123.289 13.1216C109.28 9.46414 95.5892 10.8063 82.2511 16.0744C69.6513 21.0573 58.5446 28.5065 48.2097 37.1804C29.5029 52.8673 16.0474 72.0439 9.38678 95.7336C7.79294 101.438 6.33331 107.142 7.08829 113.165C7.35672 115.346 6.78629 117.158 4.45422 117.779C2.57513 118.282 0.394073 116.672 0.209534 113.954C-0.0588989 109.894 -0.176331 105.683 0.52832 101.706C3.59857 84.1572 10.4773 68.1348 21.282 53.9411C34.1502 37.0462 50.1391 23.7249 68.8124 13.6585C84.0127 5.45433 100.119 1.31032 117.4 4.02826C123.524 5.00134 129.496 7.09853 135.402 9.11182C137.784 9.91713 139.58 10.1688 141.945 9.02794C173.889 -6.40729 203.434 -1.37407 230.698 20.1346C246.821 32.8519 258.095 49.2098 264.622 68.722C272.272 91.5896 276.97 115.028 277.691 139.187C277.708 139.892 277.607 140.596 277.557 141.318C277.943 141.452 278.379 141.603 278.815 141.771ZM147.834 25.9396C145.871 24.4464 144.479 23.3055 143.019 22.2989C139.311 19.7151 139.076 19.7487 135.503 22.2653C128.557 27.1475 122.735 33.1706 117.836 40.0662C111.125 49.4951 107.585 60.0481 107.35 71.6245C107.149 81.909 109.615 91.4722 115.907 99.8273C123.037 109.307 133.993 112.528 145.015 108.115C148.119 106.874 151.173 105.112 153.723 102.981C164.46 94.0223 169.427 82.2446 168.806 68.42C168.051 51.0218 160.031 37.0294 147.834 25.9396Z" fill="black"/>
</svg>
