<svg width="250" height="134" viewBox="0 0 250 134" fill="none" xmlns="http://www.w3.org/2000/svg">
<path d="M25.1489 114.273C22.6458 110.119 20.0886 105.992 17.6667 101.785C13.8512 95.1683 10.1169 88.4979 6.34196 81.8546C6.12547 81.4757 5.92252 81.0969 5.70604 80.7316C4.84011 79.2703 3.73063 78.1744 1.84994 78.7426C0.307497 79.2027 -0.450193 80.9481 0.280436 83.1264C1.05166 85.4401 2.05289 87.7131 3.25708 89.8238C10.9016 103.219 18.6274 116.573 26.3531 129.914C28.7073 133.986 31.8734 134.135 34.1059 129.968C37.3667 123.879 40.3433 117.628 43.2523 111.35C45.2547 107.034 46.946 102.583 48.7591 98.1855C49.0838 97.3872 49.5032 96.6025 49.7197 95.7771C50.2474 93.6935 49.4897 92.0834 47.8255 91.5151C45.9854 90.8792 44.7 91.921 43.7529 94.2076C40.7492 101.527 37.6102 108.807 34.4847 116.086C34.2818 116.573 33.8353 116.952 33.1858 117.777C32.1305 115.721 32.2793 113.853 32.4552 112.149C33.267 103.679 33.9165 95.1818 35.2154 86.7931C36.8931 75.9419 39.5315 65.2666 43.4958 55.0107C51.2892 34.8778 64.6705 19.7646 84.614 11.0647C98.293 5.09788 112.324 4.85434 126.382 10.0635C127.464 10.4694 128.519 10.9294 129.561 11.43C129.927 11.6059 130.197 11.9577 130.968 12.6071C129.818 13.5678 128.777 14.4608 127.721 15.3267C116.897 24.216 110.159 35.5949 108.021 49.3821C105.532 65.4966 110.524 79.108 123.567 89.1744C132.944 96.4266 144.877 96.9137 154.403 91.0416C158.692 88.3896 161.817 84.6147 164.185 80.258C172.1 65.659 171.302 50.8705 164.604 36.1496C160.83 27.8556 154.957 21.1447 147.949 15.3943C147.178 14.7584 146.42 14.0819 145.703 13.3783C145.527 13.2024 145.513 12.8507 145.31 12.2147C147.056 11.6465 148.788 10.997 150.574 10.5235C161.871 7.57389 172.912 8.65631 183.668 12.9048C193.83 16.9232 202.787 22.9306 211.121 29.9258C226.207 42.5765 237.059 58.0415 242.43 77.1461C243.715 81.7463 244.892 86.3466 244.284 91.2039C244.067 92.9628 244.527 94.4241 246.408 94.9247C247.923 95.3306 249.682 94.0317 249.831 91.8398C250.048 88.5655 250.142 85.1695 249.574 81.9628C247.098 67.8102 241.551 54.8889 232.837 43.4424C222.459 29.8175 209.565 19.0745 194.506 10.9564C182.248 4.34018 169.259 0.99823 155.323 3.19012C150.384 3.97487 145.567 5.66614 140.805 7.28976C138.884 7.93921 137.436 8.14217 135.528 7.22211C109.767 -5.22565 85.94 -1.1666 63.9534 16.1791C50.9509 26.435 41.8587 39.6269 36.5954 55.3625C30.4257 73.8041 26.6372 92.7058 26.0554 112.189C26.0419 112.757 26.1231 113.326 26.1637 113.908C25.8525 114.016 25.5007 114.138 25.1489 114.273ZM130.779 20.8605C132.362 19.6563 133.485 18.7363 134.662 17.9245C137.652 15.8408 137.842 15.8679 140.724 17.8974C146.325 21.8347 151.02 26.692 154.971 32.2529C160.383 39.8569 163.238 48.3674 163.427 57.7032C163.59 65.9972 161.601 73.7094 156.527 80.4474C150.777 88.092 141.941 90.6898 133.052 87.1313C130.549 86.1301 128.086 84.7094 126.03 82.9911C117.371 75.766 113.366 66.2678 113.866 55.1189C114.475 41.0882 120.943 29.804 130.779 20.8605Z" fill="black"/>
</svg>
