<svg width="100" height="94" viewBox="0 0 100 94" fill="none" xmlns="http://www.w3.org/2000/svg">
<path d="M67.8745 52.9936C65.2996 54.937 62.7504 56.8791 60.162 58.8105C58.453 60.0885 56.7996 61.4409 54.9903 62.5311C53.1431 63.6363 51.2142 63.4702 49.7427 61.7589C48.2847 60.0596 48.3116 58.1769 49.8198 56.5231C50.9877 55.2486 52.2762 54.0578 53.6216 52.9669C59.0276 48.5764 64.5041 44.298 69.883 39.8832C74.4595 36.1175 77.9986 36.7504 80.2713 42.3098C83.1359 49.2803 85.6477 56.3987 88.2217 63.4752C89.0095 65.6488 88.9251 67.8955 86.4271 68.8813C84.0685 69.8208 82.3693 68.663 81.2946 66.4276C80.22 64.1922 79.0196 62.0152 77.4066 58.8812C76.7888 60.796 76.282 61.9058 76.0863 63.0503C74.9722 70.3137 73.9366 77.5986 72.8618 84.8727C72.6637 86.2107 72.5847 87.6066 72.097 88.8314C71.2576 90.9385 69.8036 92.6409 67.2558 91.9929C64.708 91.345 64.3831 89.3911 64.7283 86.9628C66.0511 77.3687 67.2197 67.783 68.4262 58.1823C68.6159 56.6902 68.7529 55.1752 68.9034 53.6723C68.569 53.4456 68.2346 53.2189 67.8745 52.9936Z" fill="black"/>
<path d="M30.0557 25.535C28.0504 26.0119 26.0523 26.5134 24.0326 26.9409C21.7658 27.4403 19.4959 28.0211 17.205 28.2997C15.0042 28.5655 13.4344 27.4548 12.8664 25.275C12.2929 23.0298 13.3933 21.5166 15.3504 20.5981C16.3871 20.1085 17.538 19.8269 18.6498 19.503C26.4658 17.213 34.2891 14.9478 42.0979 12.6331C48.3503 10.7717 51.4693 13.1064 50.1052 19.3735C48.5752 26.359 46.3339 33.2033 44.2305 40.0609C43.5874 42.178 42.225 43.9418 39.5124 43.3248C37.228 42.7974 36.5281 41.0849 37.1629 37.6971C37.4708 36.0394 37.8265 34.4081 38.4251 31.5401C36.5234 32.9249 35.4341 33.5101 34.5954 34.3575C29.971 39.0012 25.3913 43.7525 20.7885 48.4703C19.4329 49.8434 18.177 51.3751 16.6275 52.4965C14.9775 53.6874 12.9419 54.1061 11.3213 52.4071C9.47333 50.4795 10.0695 48.5235 11.7253 46.7547C16.6171 41.5105 21.5088 36.2663 26.4006 31.022C27.8103 29.5125 29.2128 27.9783 30.6225 26.4688C30.4229 26.1517 30.2393 25.8433 30.0557 25.535Z" fill="black"/>
</svg>
